<mxfile host="app.diagrams.net" modified="2020-10-03T20:41:38.578Z" agent="5.0 (X11)" etag="Xylh8WLIzXYO4KG5JJD4" version="13.7.7" type="github">
  <diagram id="zTmtTd7neOy6DIzu7sHP" name="Page-1">
    <mxGraphModel dx="687" dy="383" grid="1" gridSize="10" guides="1" tooltips="1" connect="1" arrows="1" fold="1" page="1" pageScale="1" pageWidth="850" pageHeight="1100" math="0" shadow="0">
      <root>
        <mxCell id="0" />
        <mxCell id="1" parent="0" />
        <mxCell id="yTg_aaxLceIdwKCnXvtw-1" value="Table" style="shape=table;startSize=30;container=1;collapsible=1;childLayout=tableLayout;fixedRows=1;rowLines=0;fontStyle=1;align=center;resizeLast=1;" vertex="1" parent="1">
          <mxGeometry x="120" y="40" width="160" height="80" as="geometry" />
        </mxCell>
        <mxCell id="yTg_aaxLceIdwKCnXvtw-2" value="" style="shape=partialRectangle;collapsible=0;dropTarget=0;pointerEvents=0;fillColor=none;top=0;left=0;bottom=1;right=0;points=[[0,0.5],[1,0.5]];portConstraint=eastwest;" vertex="1" parent="yTg_aaxLceIdwKCnXvtw-1">
          <mxGeometry y="30" width="160" height="50" as="geometry" />
        </mxCell>
        <mxCell id="yTg_aaxLceIdwKCnXvtw-3" value="INT" style="shape=partialRectangle;connectable=0;fillColor=none;top=0;left=0;bottom=0;right=0;fontStyle=1;overflow=hidden;" vertex="1" parent="yTg_aaxLceIdwKCnXvtw-2">
          <mxGeometry width="30" height="50" as="geometry" />
        </mxCell>
        <mxCell id="yTg_aaxLceIdwKCnXvtw-4" value="KEY" style="shape=partialRectangle;connectable=0;fillColor=none;top=0;left=0;bottom=0;right=0;align=left;spacingLeft=6;fontStyle=5;overflow=hidden;" vertex="1" parent="yTg_aaxLceIdwKCnXvtw-2">
          <mxGeometry x="30" width="130" height="50" as="geometry" />
        </mxCell>
      </root>
    </mxGraphModel>
  </diagram>
</mxfile>
